HIERARCHY
ROOT SpineBase
{
  OFFSET 0.000000 0.000000 0.000000
  CHANNELS 6 Xposition Yposition Zposition Zrotation Xrotation Yrotation
  JOINT SpineMid
  {
    OFFSET -0.000000 31.144058 0.000000
    CHANNELS 3 Zrotation Xrotation Yrotation
    JOINT SpineShoulder
    {
      OFFSET -0.101219 23.104694 -0.716193
      CHANNELS 3 Zrotation Xrotation Yrotation
      JOINT Neck
      {
        OFFSET -0.081047 7.656407 -0.576607
        CHANNELS 3 Zrotation Xrotation Yrotation
        JOINT Head
        {
          OFFSET -3.819091 13.892775 2.278674
          CHANNELS 3 Zrotation Xrotation Yrotation
          End Site
          {
            OFFSET 0 0 0
          }
        }
      }
      JOINT ShoulderLeft
      {
        OFFSET -11.193601 -4.478310 10.908656
        CHANNELS 3 Zrotation Xrotation Yrotation
        JOINT ElbowLeft
        {
          OFFSET -1.539603 -26.755691 -6.196027
          CHANNELS 3 Zrotation Xrotation Yrotation
          JOINT WristLeft
          {
            OFFSET -2.299396 -24.908337 11.347283
            CHANNELS 3 Zrotation Xrotation Yrotation
            JOINT HandLeft
            {
              OFFSET 0.067969 -6.424415 -1.046463
              CHANNELS 3 Zrotation Xrotation Yrotation
              JOINT HandTipLeft
              {
                OFFSET -0.166003 -7.121266 0.683044
                CHANNELS 3 Zrotation Xrotation Yrotation
                End Site
                {
                  OFFSET 0 0 0
                }
              }
              JOINT ThumbLeft
              {
                OFFSET 2.574996 -1.856504 -4.569955
                CHANNELS 3 Zrotation Xrotation Yrotation
                End Site
                {
                  OFFSET 0 0 0
                }
              }
            }
          }
        }
      }
      JOINT ShoulderRight
      {
        OFFSET 7.592083 -4.038824 -12.659959
        CHANNELS 3 Zrotation Xrotation Yrotation
        JOINT ElbowRight
        {
          OFFSET 4.457847 -23.928428 -5.519744
          CHANNELS 3 Zrotation Xrotation Yrotation
          JOINT WristRight
          {
            OFFSET -6.284254 -26.314543 -3.602773
            CHANNELS 3 Zrotation Xrotation Yrotation
            JOINT HandRight
            {
              OFFSET -0.991291 -8.674631 -0.588287
              CHANNELS 3 Zrotation Xrotation Yrotation
              JOINT HandTipRight
              {
                OFFSET -1.663722 -7.728117 1.018522
                CHANNELS 3 Zrotation Xrotation Yrotation
                End Site
                {
                  OFFSET 0 0 0
                }
              }
              JOINT ThumbRight
              {
                OFFSET 2.980911 -1.245798 -2.773975
                CHANNELS 3 Zrotation Xrotation Yrotation
                End Site
                {
                  OFFSET 0 0 0
                }
              }
            }
          }
        }
      }
    }
  }
  JOINT HipLeft
  {
    OFFSET -4.955777 1.022129 1.483557
    CHANNELS 3 Zrotation Xrotation Yrotation
    JOINT KneeLeft
    {
      OFFSET -2.979650 -27.503233 13.010197
      CHANNELS 3 Zrotation Xrotation Yrotation
      JOINT AnkleLeft
      {
        OFFSET 13.061447 -34.905519 2.929743
        CHANNELS 3 Zrotation Xrotation Yrotation
        JOINT FootLeft
        {
          OFFSET -8.231527 -4.274050 -9.502621
          CHANNELS 3 Zrotation Xrotation Yrotation
          End Site
          {
            OFFSET 0 0 0
          }
        }
      }
    }
  }
  JOINT HipRight
  {
    OFFSET 4.665198 1.434151 -8.119376
    CHANNELS 3 Zrotation Xrotation Yrotation
    JOINT KneeRight
    {
      OFFSET 8.955322 -35.124581 0.025009
      CHANNELS 3 Zrotation Xrotation Yrotation
      JOINT AnkleRight
      {
        OFFSET 8.065344 -32.211987 3.396775
        CHANNELS 3 Zrotation Xrotation Yrotation
        JOINT FootRight
        {
          OFFSET -3.284861 -7.819069 -2.171720
          CHANNELS 3 Zrotation Xrotation Yrotation
          End Site
          {
            OFFSET 0 0 0
          }
        }
      }
    }
  }
}
MOTION
Frames: 9
Frame Time: 0.033333
13.544806 75.937454 261.241584 0.327826 -0.264489 46.563450 -0.033345 0.419895 -46.562571 -0.000000 0.000000 0.000000 -0.000000 0.000000 0.000000 0.000000 0.000000 0.000000 -0.000000 0.000000 0.000000 0.179520 -7.936701 0.802812 -1.994395 6.565037 -0.248136 10.613155 2.140741 0.233133 0.000000 0.000000 0.000000 0.000000 0.000000 0.000000 1.255744 -0.222584 -0.328187 1.898421 -0.423018 0.061927 -7.299668 -3.752221 0.963424 9.975536 8.223809 -1.697864 0.000000 0.000000 0.000000 0.000000 0.000000 0.000000 14.943609 0.239676 -42.647695 -14.092307 -11.999922 -6.609630 2.215825 2.310995 1.828730 0.000000 0.000000 0.000000 -0.033345 0.419895 -46.562571 -0.000000 0.000000 0.000000 1.168302 0.509779 -0.545524 0.000000 0.000000 0.000000
13.633960 75.926787 261.344583 0.352352 -0.389250 46.701954 0.041650 0.523385 -46.700947 -0.000000 0.000000 0.000000 -0.000000 0.000000 0.000000 0.000000 0.000000 0.000000 -0.000000 0.000000 0.000000 0.158825 -7.880013 0.787266 -2.405487 7.208274 -0.091587 11.087133 1.445026 0.274484 0.000000 0.000000 0.000000 0.000000 0.000000 0.000000 1.055040 -0.340503 -0.303368 1.812331 -0.265258 0.060734 -6.640379 -3.068183 0.854791 8.022595 7.060662 -1.403684 0.000000 0.000000 0.000000 0.000000 0.000000 0.000000 15.005269 0.459651 -42.900827 -13.977542 -12.068183 -6.526153 0.574747 3.873339 2.281599 0.000000 0.000000 0.000000 0.041650 0.523385 -46.700947 -0.000000 0.000000 0.000000 0.997712 0.590996 -0.531728 0.000000 0.000000 0.000000
13.876300 75.921029 261.437773 0.550538 -0.484060 46.934372 -0.022303 0.732735 -46.931903 -0.000000 0.000000 0.000000 -0.000000 0.000000 0.000000 0.000000 0.000000 0.000000 -0.000000 0.000000 0.000000 0.138201 -7.831926 0.772529 -2.456020 7.233729 -0.059035 11.129316 1.378889 0.272091 0.000000 0.000000 0.000000 0.000000 0.000000 0.000000 0.872037 -0.461719 -0.283528 1.942404 -0.011225 0.007660 -6.197599 -2.647458 0.803040 6.729700 6.331894 -1.234994 0.000000 0.000000 0.000000 0.000000 0.000000 0.000000 14.694694 0.896434 -43.411384 -13.568799 -12.122272 -6.290213 2.667372 1.643532 2.026138 0.000000 0.000000 0.000000 -0.022303 0.732735 -46.931903 -0.000000 0.000000 0.000000 0.804710 0.638552 -0.496951 0.000000 0.000000 0.000000
14.179629 75.939969 261.485424 0.812190 -0.508078 47.117322 -0.180450 0.940861 -47.112239 -0.000000 0.000000 0.000000 -0.000000 0.000000 0.000000 0.000000 0.000000 0.000000 -0.000000 0.000000 0.000000 0.121391 -7.789046 0.760202 -2.523439 7.239947 -0.025044 11.139570 1.316932 0.261901 0.000000 0.000000 0.000000 0.000000 0.000000 0.000000 0.721235 -0.534515 -0.262565 2.201097 0.260942 -0.085746 -6.018467 -1.781473 0.742503 6.409663 5.776712 -1.116257 0.000000 0.000000 0.000000 0.000000 0.000000 0.000000 14.147420 1.347897 -43.906816 -13.082369 -12.115746 -6.014816 4.508096 -0.305879 1.978045 0.000000 0.000000 0.000000 -0.180450 0.940861 -47.112239 -0.000000 0.000000 0.000000 0.586177 0.845584 -0.522428 0.000000 0.000000 0.000000
14.490070 75.973566 261.489978 1.065985 -0.466651 47.308810 -0.369065 0.226824 -47.283393 -0.648822 0.584307 -0.014247 -0.000000 0.000000 0.000000 0.000000 0.000000 0.000000 -0.000000 0.000000 0.000000 0.111011 -7.756036 0.752019 -2.615064 7.227390 0.010459 11.154904 1.280804 0.243162 0.000000 0.000000 0.000000 0.000000 0.000000 0.000000 0.616663 -0.552831 -0.242296 2.395470 0.419453 -0.158272 -4.965014 -0.912239 0.620038 6.119058 5.401158 -0.911929 0.000000 0.000000 0.000000 0.000000 0.000000 0.000000 13.485128 1.720643 -44.393828 -12.579783 -12.050337 -5.733541 3.960360 0.193159 2.410949 0.000000 0.000000 0.000000 -0.719031 1.929328 -47.212406 0.839031 -0.314534 -0.077149 0.406490 1.034803 -0.550750 0.000000 0.000000 0.000000
14.776245 76.013427 261.479419 1.279393 -0.403711 47.544798 -0.435655 0.155009 -47.511568 -0.870667 0.620861 -0.019556 -0.000000 0.000000 0.000000 0.000000 0.000000 0.000000 -0.000000 0.000000 0.000000 0.099081 -7.734225 0.744037 -2.658099 7.211485 0.031816 11.121863 1.233567 0.232223 0.000000 0.000000 0.000000 0.000000 0.000000 0.000000 -0.000000 0.000000 0.000000 3.156073 -0.000448 -0.434954 -3.942917 -0.448091 0.532449 5.841435 5.178306 -0.723238 0.000000 0.000000 0.000000 0.000000 0.000000 0.000000 12.827995 2.029018 -44.903238 -12.037560 -11.964743 -5.443388 7.418950 -3.391339 2.184828 0.000000 0.000000 0.000000 -1.211434 2.295469 -47.450760 1.231327 -0.254100 -0.061011 0.299170 1.202714 -0.590444 0.000000 0.000000 0.000000
15.016235 76.066876 261.428002 1.446038 -0.280532 47.817816 -0.489168 0.064501 -47.778525 -1.069432 0.600261 -0.024924 -0.657585 -0.731833 -0.097781 0.000000 0.000000 0.000000 -0.000000 0.000000 0.000000 0.093042 -7.715849 0.739354 -2.705489 7.189264 0.050113 11.132025 1.214404 0.221651 0.000000 0.000000 0.000000 0.000000 0.000000 0.000000 -0.000000 0.000000 0.000000 3.383895 0.139834 -0.504426 -3.382547 -0.169358 0.495294 5.651620 4.555437 -0.468163 0.000000 0.000000 0.000000 0.000000 0.000000 0.000000 12.248063 2.190798 -45.369873 -11.631489 -11.913942 -5.239352 10.071024 -6.123859 2.291723 0.000000 0.000000 0.000000 -1.677323 2.511616 -47.734865 1.540817 -0.165392 -0.038714 0.169232 1.254853 -0.574657 0.000000 0.000000 0.000000
15.202581 76.127253 261.358236 1.572794 -0.134814 48.125060 -0.530721 -0.011586 -48.081650 -1.226814 0.538484 -0.029911 -0.766684 -0.755387 -0.087213 0.000000 0.000000 0.000000 -0.000000 0.000000 0.000000 0.091527 -7.706882 0.737796 -2.734654 7.177608 0.059829 11.140396 1.220124 0.214082 0.000000 0.000000 0.000000 0.000000 0.000000 0.000000 -0.000000 0.000000 0.000000 3.682668 0.193066 -0.560860 -1.695517 -0.304472 0.432556 3.686102 4.763370 -0.377620 0.000000 0.000000 0.000000 0.000000 0.000000 0.000000 11.834555 2.229199 -45.781733 -11.443009 -11.967913 -5.170041 11.561080 -7.538655 2.560053 0.000000 0.000000 0.000000 -2.126540 2.616354 -48.066585 1.794285 -0.030030 -0.005885 0.121858 1.195282 -0.535966 0.000000 0.000000 0.000000
15.233676 76.159700 261.326633 1.520871 -0.030866 48.417601 -0.476846 -0.111488 -48.373986 -1.287474 0.462392 -0.032695 -0.951201 -0.697201 -0.041567 0.000000 0.000000 0.000000 -0.000000 0.000000 0.000000 0.091463 -7.704823 0.737582 -2.760487 7.193405 0.068096 11.163497 1.168376 0.215739 0.000000 0.000000 0.000000 0.000000 0.000000 0.000000 -0.000000 0.000000 0.000000 4.048223 0.248229 -0.627639 -1.056463 -0.422022 0.442537 2.997532 5.810652 -0.559581 0.000000 0.000000 0.000000 0.000000 0.000000 0.000000 11.853212 2.037251 -46.019640 -11.545810 -12.022537 -5.231342 11.586071 -7.542550 2.777889 0.000000 0.000000 0.000000 -2.266923 2.472739 -48.389426 1.832808 0.084545 0.021421 0.022974 1.067409 -0.453898 0.000000 0.000000 0.000000
